<?xml version="1.0" standalone="no"?>
<!DOCTYPE svg PUBLIC "-//W3C//DTD SVG 20010904//EN"
 "http://www.w3.org/TR/2001/REC-SVG-20010904/DTD/svg10.dtd">
<svg version="1.0" xmlns="http://www.w3.org/2000/svg"
 width="452.000000pt" height="452.000000pt" viewBox="0 0 452.000000 452.000000"
 preserveAspectRatio="xMidYMid meet">

<g transform="translate(0.000000,452.000000) scale(0.100000,-0.100000)"
fill="#000000" stroke="none">
<path d="M190 2260 l0 -1130 891 2 891 3 32 90 32 90 -609 -3 -609 -3 7 23
c14 44 17 159 6 205 -21 83 -91 167 -171 208 -58 30 -160 48 -193 36 -12 -5
-39 -11 -59 -15 l-38 -7 0 507 c0 478 1 506 17 499 87 -33 175 -29 262 11 44
20 53 27 41 35 -12 9 -12 10 3 5 10 -3 28 3 42 16 38 33 88 116 81 134 -4 10
-2 13 6 8 8 -5 9 -2 5 9 -3 10 -2 17 3 17 11 0 7 152 -5 188 l-7 22 606 0
c333 0 606 3 606 8 0 4 -13 43 -29 87 l-28 80 -891 3 -892 2 0 -1130z m45
1110 c3 -5 1 -10 -4 -10 -6 0 -11 5 -11 10 0 6 2 10 4 10 3 0 8 -4 11 -10z"/>
<path d="M2362 3378 c3 -7 17 -49 32 -93 l26 -80 641 3 641 3 -7 -33 c-24
-113 -12 -216 34 -288 25 -39 91 -96 141 -122 37 -19 61 -23 135 -23 50 0 102
4 118 9 l27 8 0 -502 0 -502 -27 6 c-93 23 -117 25 -163 16 -27 -5 -71 -20
-97 -34 -53 -27 -136 -104 -127 -117 3 -5 1 -9 -3 -9 -5 0 -17 -14 -27 -31
-27 -45 -34 -175 -12 -229 13 -32 13 -42 3 -46 -7 -2 -297 -3 -645 -2 -574 3
-633 2 -637 -13 -3 -9 -3 -25 1 -35 4 -13 3 -15 -3 -6 -6 8 -15 -6 -27 -45
-10 -32 -21 -64 -23 -71 -4 -10 193 -12 978 -10 l984 3 0 1125 0 1125 -984 3
c-785 2 -982 0 -979 -10z"/>
<path d="M2023 2970 c-112 -40 -196 -93 -284 -180 -139 -138 -195 -250 -221
-451 -11 -76 -3 -233 11 -225 4 3 7 -12 7 -31 0 -20 5 -38 12 -41 7 -2 9 -8 6
-13 -22 -37 176 -333 209 -312 5 3 7 1 4 -4 -10 -16 27 -44 49 -37 14 4 15 3
6 -4 -19 -13 39 -54 65 -46 13 4 14 3 5 -4 -10 -7 -1 -15 35 -32 83 -40 110
-49 147 -54 l35 -4 26 80 c17 52 24 90 20 109 -4 16 -10 27 -14 25 -4 -3 -7 3
-7 12 1 32 -67 231 -77 225 -6 -3 -7 -1 -4 4 4 6 -11 64 -32 129 -21 65 -40
112 -44 104 -3 -8 -3 3 0 25 3 22 32 120 65 218 32 98 56 183 52 189 -4 6 -3
8 2 5 6 -3 22 35 37 85 l28 90 -27 79 c-30 88 -30 88 -111 59z"/>
<path d="M2500 2962 c0 -4 9 -31 20 -60 11 -29 20 -62 20 -74 0 -11 -39 -137
-86 -279 -47 -143 -82 -264 -78 -270 4 -8 3 -9 -4 -5 -19 12 -14 -23 16 -107
16 -43 32 -74 37 -70 4 4 5 2 1 -4 -8 -15 65 -244 76 -237 4 3 5 -1 2 -9 -3
-8 4 -38 15 -68 26 -67 26 -95 1 -166 -11 -32 -20 -58 -20 -59 0 -1 16 3 35 8
19 6 31 16 28 21 -3 6 -1 7 5 3 17 -10 74 22 66 37 -4 7 -4 9 1 5 16 -15 55
14 155 112 63 63 146 178 155 215 1 6 7 22 13 37 52 125 63 318 28 453 -25 95
-76 200 -88 183 -6 -9 -7 -6 -3 8 7 25 -16 54 -125 165 -53 53 -97 86 -149
113 -90 45 -121 58 -121 48z m330 -1156 c0 -3 -4 -8 -10 -11 -5 -3 -10 -1 -10
4 0 6 5 11 10 11 6 0 10 -2 10 -4z"/>
<path d="M865 2428 c-35 -19 -65 -50 -58 -61 3 -6 1 -7 -5 -3 -29 18 -54 -126
-30 -174 58 -119 210 -147 301 -56 15 15 27 36 27 47 0 11 4 18 9 15 11 -7 23
66 15 91 -33 102 -94 153 -184 153 -30 0 -64 -6 -75 -12z"/>
<path d="M3483 2413 c-42 -27 -93 -108 -93 -148 0 -39 20 -90 48 -121 41 -46
83 -64 147 -63 66 2 106 24 147 84 35 52 37 138 4 188 -59 87 -171 114 -253
60z m210 -38 c4 -8 3 -16 -1 -19 -4 -3 -9 4 -9 15 -2 23 3 25 10 4z"/>
</g>
</svg>
